<svg width="75" height="55" viewBox="0 0 75 55" fill="none" xmlns="http://www.w3.org/2000/svg">
<path d="M46.875 4.58325V27.4999C46.875 30.0208 44.0625 32.0833 40.625 32.0833H6.25V13.7499C6.25 8.68534 11.8437 4.58325 18.75 4.58325H46.875Z" stroke="#FAFAFA" stroke-width="6.875" stroke-linecap="round" stroke-linejoin="round"/>
<path d="M68.75 32.0833V38.9583C68.75 42.7624 64.5625 45.8333 59.375 45.8333H56.25C56.25 43.3124 53.4375 41.2499 50 41.2499C46.5625 41.2499 43.75 43.3124 43.75 45.8333H31.25C31.25 43.3124 28.4375 41.2499 25 41.2499C21.5625 41.2499 18.75 43.3124 18.75 45.8333H15.625C10.4375 45.8333 6.25 42.7624 6.25 38.9583V32.0833H40.625C44.0625 32.0833 46.875 30.0208 46.875 27.4999V11.4583H52.625C54.875 11.4583 56.9375 12.352 58.0625 13.7729L63.4063 20.6249H59.375C57.6563 20.6249 56.25 21.6562 56.25 22.9166V29.7916C56.25 31.052 57.6563 32.0833 59.375 32.0833H68.75Z" stroke="#FAFAFA" stroke-width="6.875" stroke-linecap="round" stroke-linejoin="round"/>
<path d="M24.9999 50.4167C28.4517 50.4167 31.2499 48.3646 31.2499 45.8333C31.2499 43.302 28.4517 41.25 24.9999 41.25C21.5481 41.25 18.7499 43.302 18.7499 45.8333C18.7499 48.3646 21.5481 50.4167 24.9999 50.4167Z" stroke="#FAFAFA" stroke-width="6.875" stroke-linecap="round" stroke-linejoin="round"/>
<path d="M50.0001 50.4167C53.4519 50.4167 56.2501 48.3646 56.2501 45.8333C56.2501 43.302 53.4519 41.25 50.0001 41.25C46.5483 41.25 43.7501 43.302 43.7501 45.8333C43.7501 48.3646 46.5483 50.4167 50.0001 50.4167Z" stroke="#FAFAFA" stroke-width="6.875" stroke-linecap="round" stroke-linejoin="round"/>
<path d="M68.7499 27.5V32.0833H59.3749C57.6561 32.0833 56.2499 31.0521 56.2499 29.7917V22.9167C56.2499 21.6563 57.6561 20.625 59.3749 20.625H63.4062L68.7499 27.5Z" stroke="#FAFAFA" stroke-width="6.875" stroke-linecap="round" stroke-linejoin="round"/>
</svg>
